<svg width="26" height="24" viewBox="0 0 26 24" fill="none" xmlns="http://www.w3.org/2000/svg">
<path id="Vector" d="M24.5 11.9994H9.13973M3.71795 11.9994H1.5M3.71795 11.9994C3.71795 11.2756 4.00349 10.5815 4.51177 10.0698C5.02004 9.558 5.70941 9.2705 6.42822 9.2705C7.14702 9.2705 7.83639 9.558 8.34467 10.0698C8.85294 10.5815 9.13849 11.2756 9.13849 11.9994C9.13849 12.7231 8.85294 13.4172 8.34467 13.929C7.83639 14.4407 7.14702 14.7282 6.42822 14.7282C5.70941 14.7282 5.02004 14.4407 4.51177 13.929C4.00349 13.4172 3.71795 12.7231 3.71795 11.9994ZM24.5 20.2699H17.3538M17.3538 20.2699C17.3538 20.9938 17.0676 21.6887 16.5592 22.2005C16.0508 22.7124 15.3613 23 14.6423 23C13.9235 23 13.2341 22.7112 12.7259 22.1995C12.2176 21.6877 11.9321 20.9936 11.9321 20.2699M17.3538 20.2699C17.3538 19.546 17.0676 18.8523 16.5592 18.3404C16.0508 17.8286 15.3613 17.541 14.6423 17.541C13.9235 17.541 13.2341 17.8285 12.7259 18.3403C12.2176 18.852 11.9321 19.5461 11.9321 20.2699M11.9321 20.2699H1.5M24.5 3.72888H20.6397M15.2179 3.72888H1.5M15.2179 3.72888C15.2179 3.00513 15.5035 2.31103 16.0118 1.79927C16.52 1.28751 17.2094 1 17.9282 1C18.2841 1 18.6366 1.07058 18.9654 1.20772C19.2942 1.34486 19.593 1.54587 19.8447 1.79927C20.0963 2.05267 20.296 2.3535 20.4322 2.68458C20.5684 3.01566 20.6385 3.37052 20.6385 3.72888C20.6385 4.08724 20.5684 4.44209 20.4322 4.77317C20.296 5.10425 20.0963 5.40508 19.8447 5.65848C19.593 5.91188 19.2942 6.11289 18.9654 6.25003C18.6366 6.38717 18.2841 6.45775 17.9282 6.45775C17.2094 6.45775 16.52 6.17025 16.0118 5.65848C15.5035 5.14672 15.2179 4.45262 15.2179 3.72888Z" stroke="white" stroke-width="1.5" stroke-miterlimit="10" stroke-linecap="round"/>
</svg>
