<svg width="10" height="12" viewBox="0 0 10 12" fill="none" xmlns="http://www.w3.org/2000/svg">
<path d="M5.00001 -0.00012207C2.36001 -0.00012207 0.200012 2.15988 0.200012 4.79988C0.200012 8.03988 4.40001 11.6999 4.58001 11.8799C4.70001 11.9399 4.88001 11.9999 5.00001 11.9999C5.12001 11.9999 5.30001 11.9399 5.42001 11.8799C5.60001 11.6999 9.80001 8.03988 9.80001 4.79988C9.80001 2.15988 7.64001 -0.00012207 5.00001 -0.00012207ZM5.00001 10.6199C3.74001 9.41988 1.40001 6.83988 1.40001 4.79988C1.40001 2.81988 3.02001 1.19988 5.00001 1.19988C6.98001 1.19988 8.60001 2.81988 8.60001 4.79988C8.60001 6.77988 6.26001 9.41988 5.00001 10.6199ZM5.00001 2.39988C3.68001 2.39988 2.60001 3.47988 2.60001 4.79988C2.60001 6.11988 3.68001 7.19988 5.00001 7.19988C6.32001 7.19988 7.40001 6.11988 7.40001 4.79988C7.40001 3.47988 6.32001 2.39988 5.00001 2.39988ZM5.00001 5.99988C4.34001 5.99988 3.80001 5.45988 3.80001 4.79988C3.80001 4.13988 4.34001 3.59988 5.00001 3.59988C5.66001 3.59988 6.20001 4.13988 6.20001 4.79988C6.20001 5.45988 5.66001 5.99988 5.00001 5.99988Z" fill="#585D6E"/>
</svg>
