<svg width="12" height="12" viewBox="0 0 12 12" fill="none" xmlns="http://www.w3.org/2000/svg">
<path d="M6 10.7999C7.27304 10.7999 8.49394 10.2942 9.39411 9.39399C10.2943 8.49382 10.8 7.27292 10.8 5.99988C10.8 4.72684 10.2943 3.50594 9.39411 2.60577C8.49394 1.70559 7.27304 1.19988 6 1.19988C4.72696 1.19988 3.50606 1.70559 2.60589 2.60577C1.70571 3.50594 1.2 4.72684 1.2 5.99988C1.2 7.27292 1.70571 8.49382 2.60589 9.39399C3.50606 10.2942 4.72696 10.7999 6 10.7999ZM6 -0.00012207C6.78793 -0.00012207 7.56815 0.155073 8.2961 0.456601C9.02405 0.758129 9.68549 1.20009 10.2426 1.75724C10.7998 2.31439 11.2417 2.97582 11.5433 3.70378C11.8448 4.43173 12 5.21195 12 5.99988C12 7.59118 11.3679 9.1173 10.2426 10.2425C9.11742 11.3677 7.5913 11.9999 6 11.9999C2.682 11.9999 0 9.29988 0 5.99988C0 4.40858 0.632141 2.88246 1.75736 1.75724C2.88258 0.632019 4.4087 -0.00012207 6 -0.00012207ZM6.3 2.99988V6.14988L9 7.75188L8.55 8.48988L5.4 6.59988V2.99988H6.3Z" fill="#585D6E"/>
</svg>
